# Pyramid OBJ
v -1.000000 0.000000 -1.000000
v 1.000000 0.000000 -1.000000
v 1.000000 0.000000 1.000000
v -1.000000 0.000000 1.000000
v 0.000000 1.000000 0.000000

vt 0.000000 0.000000
vt 1.000000 0.000000
vt 1.000000 1.000000
vt 0.000000 1.000000
vt 0.500000 1.000000

vn 0.000000 0.707107 -0.707107
vn 0.707107 0.707107 0.000000
vn 0.000000 0.707107 0.707107
vn -0.707107 0.707107 0.000000
vn 0.000000 -1.000000 0.000000

# Faces
f 2/2/1 1/1/1 5/5/1
f 3/3/2 2/2/2 5/5/2
f 4/4/3 3/3/3 5/5/3
f 1/1/4 4/4/4 5/5/4
f 2/2/5 3/3/5 1/1/5
f 3/3/5 4/4/5 1/1/5
