# Small cube with UVs and normals
o SmallCube

# Vertices (6 sides × 4 vertices per side = 24)
v -0.4 -0.2  0.15
v  0.4 -0.2  0.15
v  0.4  0.2  0.15
v -0.4  0.2  0.15

v  0.4 -0.2 -0.15
v -0.4 -0.2 -0.15
v -0.4  0.2 -0.15
v  0.4  0.2 -0.15

v -0.4 -0.2 -0.15
v -0.4 -0.2  0.15
v -0.4  0.2  0.15
v -0.4  0.2 -0.15

v  0.4 -0.2  0.15
v  0.4 -0.2 -0.15
v  0.4  0.2 -0.15
v  0.4  0.2  0.15

v -0.4  0.2  0.15
v  0.4  0.2  0.15
v  0.4  0.2 -0.15
v -0.4  0.2 -0.15

v -0.4 -0.2 -0.15
v  0.4 -0.2 -0.15
v  0.4 -0.2  0.15
v -0.4 -0.2  0.15

# UVs (same for every side)
vt 0 0
vt 1 0
vt 1 1
vt 0 1

# Normals
vn 0 0 1
vn 0 0 -1
vn -1 0 0
vn 1 0 0
vn 0 1 0
vn 0 -1 0

# Faces (each face uses 4 unique vertices, so UVs and normals align)
f  1/1/1  2/2/1  3/3/1  4/4/1
f  5/1/2  6/2/2  7/3/2  8/4/2
f  9/1/3 10/2/3 11/3/3 12/4/3
f 13/1/4 14/2/4 15/3/4 16/4/4
f 17/1/5 18/2/5 19/3/5 20/4/5
f 21/1/6 22/2/6 23/3/6 24/4/6
