# Triangular prism with per-face UVs

v -0.700000 0.000000 -0.500000
v 0.700000 0.000000 -0.500000
v 0.000000 0.866025 -0.500000
v -0.700000 0.000000 0.500000
v 0.700000 0.000000 0.500000
v 0.000000 0.866025 0.500000

vt 0.000000 0.000000
vt 2.000000 0.000000
vt 2.000000 1.000000
vt 0.000000 1.000000
vt 0.000000 0.000000
vt 1.000000 0.000000
vt 1.000000 1.000000
vt 0.000000 1.000000

vn 0.000000 0.000000 -1.000000
vn 0.000000 0.000000 1.000000
vn 0.000000 -1.000000 0.000000
vn 0.000000 -1.000000 0.000000
vn 0.866025 0.500000 0.000000
vn 0.866025 0.500000 -0.000000
vn -0.866025 0.500000 0.000000
vn -0.866025 0.500000 0.000000

f 1/5/1 3/6/1 2/7/1
f 4/5/2 5/7/2 6/6/2
f 1/2/3 2/3/3 5/4/3
f 1/2/4 5/4/4 4/1/4
f 2/2/5 3/3/5 6/4/5
f 2/2/6 6/4/6 5/1/6
f 3/2/7 1/3/7 4/4/7
f 3/2/8 4/4/8 6/1/8